HIERARCHY
ROOT Hips
{
    OFFSET 0.000000 0.000000 0.000000
    CHANNELS 6 Xposition Yposition Zposition Zrotation Xrotation Yrotation
    JOINT Spine
    {
        OFFSET -0.000000 14.517291 0.000000
        CHANNELS 3 Zrotation Xrotation Yrotation
        JOINT Spine1
        {
            OFFSET -0.000000 37.558300 0.000000
            CHANNELS 3 Zrotation Xrotation Yrotation
            JOINT Neck
            {
                OFFSET -0.000000 37.404057 3.400369
                CHANNELS 3 Zrotation Xrotation Yrotation
                JOINT Head
                {
                    OFFSET -0.000000 24.785618 -3.540803
                    CHANNELS 3 Zrotation Xrotation Yrotation
                    End Site
                    {
                        OFFSET -0.000000 35.408028 0.000000
                    }
                }
            }
            JOINT LeftShoulder
            {
                OFFSET 6.992933 33.973492 -0.192664
                CHANNELS 3 Zrotation Xrotation Yrotation
                JOINT LeftArm
                {
                    OFFSET 21.527611 0.000000 0.000000
                    CHANNELS 3 Zrotation Xrotation Yrotation
                    JOINT LeftForeArm
                    {
                        OFFSET 56.353916 0.000000 0.000000
                        CHANNELS 3 Zrotation Xrotation Yrotation
                        JOINT LeftHand
                        {
                            OFFSET 47.774071 0.000000 0.000000
                            CHANNELS 3 Zrotation Xrotation Yrotation
                            End Site
                            {
                                OFFSET 26.556021 0.000000 0.000000
                            }
                        }
                    }
                }
            }
            JOINT RightShoulder
            {
                OFFSET -7.065357 33.973492 -0.192664
                CHANNELS 3 Zrotation Xrotation Yrotation
                JOINT RightArm
                {
                    OFFSET -21.527611 0.000000 0.000000
                    CHANNELS 3 Zrotation Xrotation Yrotation
                    JOINT RightForeArm
                    {
                        OFFSET -56.353916 0.000000 0.000000
                        CHANNELS 3 Zrotation Xrotation Yrotation
                        JOINT RightHand
                        {
                            OFFSET -47.774071 0.000000 0.000000
                            CHANNELS 3 Zrotation Xrotation Yrotation
                            End Site
                            {
                                OFFSET -26.556021 0.000000 0.000000
                            }
                        }
                    }
                }
            }
        }
    }
    JOINT LeftUpLeg
    {
        OFFSET 17.704014 0.000000 0.000000
        CHANNELS 3 Zrotation Xrotation Yrotation
        JOINT LeftLeg
        {
            OFFSET -0.000000 -81.181816 0.000000
            CHANNELS 3 Zrotation Xrotation Yrotation
            JOINT LeftFoot
            {
                OFFSET -0.000000 -62.821102 0.000000
                CHANNELS 3 Zrotation Xrotation Yrotation
                JOINT LeftToeBase
                {
                    OFFSET -0.000000 -11.507608 26.556021
                    CHANNELS 3 Zrotation Xrotation Yrotation
                    End Site
                    {
                        OFFSET -0.000000 0.000000 7.081605
                    }
                }
            }
        }
    }
    JOINT RightUpLeg
    {
        OFFSET -17.704014 0.000000 0.000000
        CHANNELS 3 Zrotation Xrotation Yrotation
        JOINT RightLeg
        {
            OFFSET -0.000000 -81.181816 0.000000
            CHANNELS 3 Zrotation Xrotation Yrotation
            JOINT RightFoot
            {
                OFFSET -0.000000 -62.821102 0.000000
                CHANNELS 3 Zrotation Xrotation Yrotation
                JOINT RightToeBase
                {
                    OFFSET -0.000000 -11.507608 26.556021
                    CHANNELS 3 Zrotation Xrotation Yrotation
                    End Site
                    {
                        OFFSET -0.000000 0.000000 7.081605
                    }
                }
            }
        }
    }
}
MOTION
Frames:    11
Frame Time:    0.008333
-12.505177    150.956177    -5.988750    0.505337    0.370013    25.028011    -3.592392    2.504275    8.158703    -0.864527    -0.637056    2.689200    -1.691665    4.625671    -16.440016    13.295574    -5.955473    -14.410908    3.552037    2.884555    -10.336135    -29.796850    13.907127    -68.616371    1.353008    -31.838728    -100.795227    -12.910452    -28.820692    -16.339745    -0.459513    12.383806    0.946144    37.814205    14.299129    46.908707    -39.769501    -32.691238    42.434822    11.596898    -14.822771    32.889141    -1.805546    -34.180431    -28.087675    -14.674259    30.898842    -20.600611    -3.890830    -2.555777    29.757841    0.000000    0.000000    0.000000    2.998459    7.512493    -21.580002    4.104864    31.057566    -5.509762    1.611092    -34.597305    -7.565753    0.000000    0.000000    0.000000    
-12.540682    150.953156    -5.976183    0.500686    0.361868    25.054003    -3.583202    2.526398    8.181846    -0.878728    -0.648608    2.696598    -1.693154    4.602282    -16.437925    13.319721    -5.918389    -14.407832    3.508111    2.883054    -10.304325    -29.841698    13.905847    -68.527443    1.522167    -32.089695    -100.585083    -13.022582    -28.887243    -16.387840    -0.474289    12.396589    0.947100    37.810616    14.345299    46.927708    -39.838219    -32.720188    42.352570    11.618443    -14.851737    32.909180    -1.794635    -34.177578    -28.100586    -14.677011    30.894684    -20.604149    -3.904468    -2.568575    29.755180    0.000000    0.000000    0.000000    3.028900    7.523284    -21.606972    4.104411    31.039644    -5.523915    1.586519    -34.592525    -7.564666    0.000000    0.000000    0.000000    
-12.574947    150.949097    -5.962739    0.495726    0.360205    25.086800    -3.579675    2.530316    8.198161    -0.879963    -0.644292    2.702047    -1.742780    4.584958    -16.434402    13.409722    -5.873752    -14.386524    3.456237    2.898911    -10.251346    -29.899469    13.876432    -68.462418    1.641104    -32.292294    -100.379654    -13.020201    -28.972607    -16.438438    -0.499228    12.406048    0.950081    37.783199    14.415092    46.952267    -39.932823    -32.757908    42.242661    11.643679    -14.892241    32.908615    -1.793359    -34.180458    -28.111996    -14.673723    30.891197    -20.593851    -3.891907    -2.553696    29.728813    0.000000    0.000000    0.000000    3.054762    7.533613    -21.629326    4.114258    31.019463    -5.516357    1.563537    -34.586727    -7.595771    0.000000    0.000000    0.000000    
-12.610045    150.946884    -5.951582    0.491114    0.361974    25.113758    -3.574422    2.539905    8.224998    -0.897517    -0.650243    2.710774    -1.747591    4.567289    -16.418653    13.455782    -5.852253    -14.362965    3.414475    2.905391    -10.219742    -29.995113    13.814241    -68.372955    1.764811    -32.424347    -100.167130    -13.087612    -28.973259    -16.482746    -0.502279    12.403602    0.955236    37.793255    14.426908    46.939232    -39.932446    -32.762527    42.217850    11.631302    -14.911852    32.905853    -1.784767    -34.187153    -28.118429    -14.670345    30.888430    -20.609627    -3.914486    -2.564341    29.728073    0.000000    0.000000    0.000000    3.078590    7.531947    -21.662806    4.097682    31.016060    -5.497070    1.559088    -34.587593    -7.581577    0.000000    0.000000    0.000000    
-12.644286    150.944382    -5.941094    0.488011    0.362960    25.148376    -3.564112    2.550102    8.242664    -0.928927    -0.653761    2.716442    -1.744126    4.560690    -16.406252    13.513798    -5.841584    -14.340477    3.386806    2.914717    -10.192183    -30.057373    13.780902    -68.291183    1.895563    -32.629822    -99.972305    -13.160336    -29.040741    -16.545670    -0.502406    12.405449    0.956462    37.797039    14.435698    46.940556    -39.919704    -32.756310    42.190125    11.622578    -14.926673    32.881516    -1.783311    -34.190811    -28.135744    -14.666824    30.881636    -20.625624    -3.927757    -2.568778    29.723761    0.000000    0.000000    0.000000    3.103223    7.538452    -21.696903    4.096946    30.992775    -5.497251    1.556367    -34.582481    -7.586563    0.000000    0.000000    0.000000    
-12.679064    150.945206    -5.931343    0.484188    0.368947    25.182613    -3.554722    2.551292    8.259918    -0.956287    -0.650812    2.722128    -1.733359    4.535540    -16.392176    13.534147    -5.805406    -14.326830    3.350125    2.930037    -10.166505    -30.122517    13.736879    -68.231163    2.057325    -32.817734    -99.732773    -13.132469    -29.076725    -16.580395    -0.506249    12.402446    0.957280    37.802036    14.449465    46.943844    -39.913334    -32.750740    42.148300    11.638259    -14.932623    32.910263    -1.782930    -34.200005    -28.150234    -14.665277    30.873743    -20.623125    -3.940800    -2.562062    29.704285    0.000000    0.000000    0.000000    3.127815    7.536128    -21.731848    4.090372    30.976862    -5.525996    1.565934    -34.573872    -7.561215    0.000000    0.000000    0.000000    
-12.710682    150.946930    -5.920098    0.480895    0.369108    25.212856    -3.542367    2.561237    8.283875    -0.993318    -0.658045    2.729813    -1.708307    4.543422    -16.379313    13.571048    -5.812387    -14.308409    3.333502    2.951331    -10.152310    -30.194603    13.702804    -68.165802    2.225563    -33.046120    -99.504311    -13.253929    -29.126923    -16.644978    -0.497139    12.407351    0.953620    37.803455    14.449512    46.946201    -39.908592    -32.711559    42.097942    11.647564    -14.910908    32.879654    -1.782033    -34.201721    -28.167446    -14.667401    30.855392    -20.633383    -4.012023    -2.558903    29.737869    0.000000    0.000000    0.000000    3.147696    7.547180    -21.742767    4.121339    30.946730    -5.550646    1.531216    -34.567081    -7.588872    0.000000    0.000000    0.000000    
-12.741802    150.949081    -5.912479    0.477345    0.370464    25.240507    -3.533517    2.564207    8.304296    -1.014872    -0.653074    2.736568    -1.688441    4.544097    -16.361671    13.588216    -5.822931    -14.287605    3.293691    2.959930    -10.136253    -30.234552    13.698986    -68.101440    2.411862    -33.347588    -99.321999    -13.331466    -29.258911    -16.531212    -0.509466    12.420335    0.952179    37.792431    14.452578    46.969101    -39.904301    -32.688179    42.028988    11.622221    -14.918869    32.904224    -1.778704    -34.203903    -28.185154    -14.654444    30.854315    -20.655222    -3.979558    -2.562586    29.719233    0.000000    0.000000    0.000000    3.167875    7.543377    -21.764782    4.104525    30.946030    -5.535864    1.549188    -34.554501    -7.574755    0.000000    0.000000    0.000000    
-12.774179    150.955475    -5.907165    0.470789    0.369918    25.260559    -3.526619    2.573130    8.326944    -1.031219    -0.656805    2.743961    -1.678003    4.543276    -16.340475    13.613110    -5.830967    -14.260848    3.265571    2.979510    -10.121153    -30.301903    13.663612    -68.038963    2.575842    -33.554226    -99.099953    -13.285276    -29.322069    -16.538616    -0.516063    12.442046    0.941472    37.776619    14.437847    47.010529    -39.873875    -32.644375    41.966843    11.583752    -14.918229    32.904030    -1.764709    -34.202888    -28.191763    -14.651512    30.833790    -20.660604    -3.995273    -2.555174    29.718302    0.000000    0.000000    0.000000    3.192229    7.537172    -21.783686    4.093297    30.943846    -5.483690    1.522386    -34.539085    -7.634257    0.000000    0.000000    0.000000    
-12.804183    150.961929    -5.898032    0.467480    0.372704    25.281427    -3.525158    2.579294    8.341763    -1.049583    -0.661333    2.748714    -1.653584    4.544475    -16.321106    13.616574    -5.848373    -14.240526    3.239476    3.004466    -10.089626    -30.410402    13.593422    -67.969261    2.653861    -33.680069    -98.915489    -13.342632    -29.368567    -16.604334    -0.515813    12.467650    0.940600    37.759907    14.421626    47.053429    -39.862892    -32.601212    41.883492    11.564549    -14.912383    32.910553    -1.760439    -34.202827    -28.207542    -14.646156    30.811100    -20.684660    -4.088567    -2.567385    29.763811    0.000000    0.000000    0.000000    3.212227    7.542624    -21.782028    4.117042    30.913971    -5.526355    1.501208    -34.517071    -7.640862    0.000000    0.000000    0.000000    
-12.832579    150.968048    -5.895936    0.463962    0.375609    25.300261    -3.520124    2.591722    8.358560    -1.077726    -0.665792    2.754016    -1.603493    4.523255    -16.301311    13.581227    -5.854849    -14.230856    3.231458    3.010623    -10.072519    -30.488585    13.555947    -67.918289    2.858253    -33.886513    -98.678619    -12.661986    -29.511765    -16.245480    -0.510411    12.478785    0.930664    37.722721    14.438098    47.095814    -39.877827    -32.573627    41.775364    11.560644    -14.917945    32.927734    -1.752445    -34.201736    -28.224939    -14.635818    30.796778    -20.707466    -4.040824    -2.554577    29.746288    0.000000    0.000000    0.000000    3.229467    7.541846    -21.787508    4.121120    30.896624    -5.530596    1.510512    -34.506516    -7.643662    0.000000    0.000000    0.000000    
